<svg xmlns="http://www.w3.org/2000/svg" width="121.54" height="107.23" viewBox="0 0 121.54 107.23"><path d="M99.732-65.89a2.436,2.436,0,0,0,.27.01,2.436,2.436,0,0,0,.27-.01ZM155.2-24.43a54.786,54.786,0,0,0-6.14-18.2,18.314,18.314,0,0,1-4.02,5.29,48.967,48.967,0,0,1,4.22,13.8,3.777,3.777,0,0,1-.9,3.12,3.8,3.8,0,0,1-2.93,1.35H54.572a3.8,3.8,0,0,1-2.93-1.35,3.777,3.777,0,0,1-.9-3.12,50.089,50.089,0,0,1,48.99-42.35h.54a49.242,49.242,0,0,1,18.49,3.72,18.191,18.191,0,0,1,5.05-4.31,55.534,55.534,0,0,0-9.46-3.5A27.223,27.223,0,0,0,127.2-93.09,27.237,27.237,0,0,0,100-120.3a27.246,27.246,0,0,0-27.21,27.21,27.232,27.232,0,0,0,12.86,23.11A56.176,56.176,0,0,0,44.8-24.43a9.9,9.9,0,0,0,2.29,7.93,9.861,9.861,0,0,0,7.48,3.43h90.86a9.861,9.861,0,0,0,7.48-3.43A9.9,9.9,0,0,0,155.2-24.43ZM78.792-93.09A21.241,21.241,0,0,1,100-114.3a21.232,21.232,0,0,1,21.2,21.21,21.218,21.218,0,0,1-20.92,21.2,2.62,2.62,0,0,1-.28.01,2.62,2.62,0,0,1-.28-.01A21.226,21.226,0,0,1,78.792-93.09Zm20.93,21.2a2.62,2.62,0,0,0,.28.01,2.62,2.62,0,0,0,.28-.01Zm42.27-21.87V-62.8a15.1,15.1,0,0,0-9.14-3.1,15.025,15.025,0,0,0-5.74,1.13,15.088,15.088,0,0,0-5.49,3.88,15.025,15.025,0,0,0-3.91,10.13,15.155,15.155,0,0,0,15.14,15.14,15.055,15.055,0,0,0,10.75-4.5,14.872,14.872,0,0,0,3.56-5.71,14.873,14.873,0,0,0,.83-4.93v-37h18.24v-6Zm-1.77,48.39a9.127,9.127,0,0,1-7.37,3.75,9.15,9.15,0,0,1-9.14-9.14,9.125,9.125,0,0,1,3.34-7.06,9.1,9.1,0,0,1,5.8-2.08,8.863,8.863,0,0,1,1.8.18,9.184,9.184,0,0,1,7.05,6.66,9.174,9.174,0,0,1,.29,2.3A9,9,0,0,1,140.222-45.37Zm-1.23-5.39a6.137,6.137,0,0,1-.72,2.9,50.66,50.66,0,0,0-8.61-8.14,6.054,6.054,0,0,1,3.19-.9A6.154,6.154,0,0,1,138.992-50.76Z" transform="translate(-44.692 120.3)" fill="#fff"/></svg>